<svg xmlns="http://www.w3.org/2000/svg"  viewBox="0 0 24 24" width="24px" height="24px"><path d="M 12 3 C 5.925 3 1 7.029 1 12 C 1 13.924 1.744 15.701063 3 17.164062 L 3 12.25 L 3.0253906 12.25 C 3.1523906 10.988 4.205 10 5.5 10 C 6.795 10 7.8476094 10.988 7.9746094 12.25 L 8 12.25 L 8 20.376953 C 9.241 20.773953 10.587 21 12 21 C 13.413 21 14.759 20.773953 16 20.376953 L 16 12.5 C 16 11.119 17.119 10 18.5 10 C 19.881 10 21 11.119 21 12.5 L 21 17.164062 C 22.256 15.701063 23 13.924 23 12 C 23 7.029 18.075 3 12 3 z M 5 11 A 1 1 0 0 0 5 13 A 1 1 0 0 0 5 11 z M 18 11 A 1 1 0 0 0 18 13 A 1 1 0 0 0 18 11 z M 12 13 C 12.994 13 13.819609 13.724781 13.974609 14.675781 C 14.002609 14.848781 13.850781 15 13.675781 15 L 10.326172 15 C 10.151172 15 9.9983438 14.848781 10.027344 14.675781 C 10.181344 13.724781 11.006 13 12 13 z"/></svg>